<svg width="21" height="23" viewBox="0 0 21 23" fill="none" xmlns="http://www.w3.org/2000/svg">
<path fill-rule="evenodd" clip-rule="evenodd" d="M12.8378 13.4111H19.4109C19.8323 13.4126 20.2359 13.5839 20.5336 13.8876C20.8314 14.1913 20.9991 14.6027 21 15.032V21.381C20.9991 21.8101 20.8313 22.2213 20.5335 22.5247C20.2357 22.8281 19.8321 22.999 19.4109 23H12.8378C12.4166 22.999 12.013 22.8281 11.7152 22.5247C11.4174 22.2213 11.2496 21.8101 11.2487 21.381V15.032C11.2496 14.6027 11.4173 14.1913 11.715 13.8876C12.0128 13.5839 12.4164 13.4126 12.8378 13.4111ZM4.82428 14.6221C4.6633 14.6134 4.51211 14.5406 4.40321 14.4195C4.29431 14.2984 4.23639 14.1386 4.24191 13.9745C4.23797 13.893 4.24996 13.8115 4.27719 13.7348C4.30442 13.658 4.34634 13.5876 4.40053 13.5275C4.45471 13.4674 4.52008 13.4189 4.59282 13.3848C4.66557 13.3506 4.74424 13.3316 4.82428 13.3287H7.88123C8.04205 13.337 8.19324 13.4093 8.30218 13.5301C8.41113 13.6509 8.4691 13.8105 8.46359 13.9745C8.46779 14.0561 8.45599 14.1378 8.42887 14.2147C8.40175 14.2917 8.35987 14.3624 8.30566 14.4227C8.25145 14.4829 8.186 14.5316 8.11313 14.5659C8.04026 14.6001 7.96143 14.6192 7.88123 14.6221H4.82428ZM18.6375 11.1668H17.3515V1.51613C17.3518 1.45886 17.33 1.40377 17.2909 1.36265C17.2508 1.3284 17.2 1.30982 17.1476 1.31024H1.48074C1.45287 1.3099 1.42521 1.31519 1.39936 1.32579C1.37351 1.33639 1.34997 1.3521 1.3301 1.37201C1.31039 1.39213 1.29486 1.41609 1.28444 1.44246C1.27403 1.46883 1.26893 1.49707 1.26947 1.52549V19.5598C1.26872 19.5883 1.27366 19.6167 1.28399 19.6433C1.29432 19.6699 1.30982 19.694 1.32957 19.7143C1.34931 19.7346 1.37288 19.7506 1.39887 19.7614C1.42485 19.7721 1.4527 19.7774 1.48074 19.7769H8.29825V21.0871H1.48809C1.09082 21.0841 0.710961 20.9206 0.431946 20.6325C0.152931 20.3443 -0.00241654 19.9552 2.84291e-05 19.5504V1.51613C-0.000858596 1.31709 0.037555 1.1199 0.112984 0.936298C0.188413 0.752691 0.299317 0.586417 0.439098 0.447366C0.576016 0.305546 0.739298 0.192943 0.919406 0.116135C1.09951 0.039327 1.29284 -0.000146851 1.48809 1.90983e-05H17.1568C17.3522 -0.000991278 17.5457 0.038098 17.726 0.114955C17.9062 0.191813 18.0694 0.304864 18.2058 0.447366C18.345 0.586866 18.4555 0.753226 18.5309 0.93673C18.6063 1.12023 18.645 1.3172 18.6449 1.51613C18.6449 8.96381 18.6449 -0.215232 18.6449 11.1668H18.6375ZM4.81693 6.19924C4.65612 6.19004 4.50521 6.11716 4.3964 5.99617C4.2876 5.87517 4.22952 5.71563 4.23457 5.55161C4.23062 5.47002 4.2426 5.38845 4.26981 5.31161C4.29701 5.23477 4.33891 5.16419 4.39307 5.10396C4.44724 5.04373 4.51259 4.99504 4.58534 4.96071C4.6581 4.92639 4.73681 4.90711 4.81693 4.90399H13.8041C13.965 4.91272 14.1162 4.98545 14.2251 5.10656C14.334 5.22766 14.392 5.38746 14.3864 5.55161C14.3904 5.6332 14.3784 5.71478 14.3512 5.79162C14.324 5.86846 14.2821 5.93904 14.2279 5.99927C14.1738 6.0595 14.1084 6.10819 14.0357 6.14252C13.9629 6.17684 13.8842 6.19612 13.8041 6.19924H4.81693ZM4.81693 10.4107C4.65612 10.4015 4.50521 10.3286 4.3964 10.2076C4.2876 10.0866 4.22952 9.92706 4.23457 9.76304C4.23062 9.68155 4.24261 9.60006 4.26984 9.52333C4.29707 9.4466 4.339 9.37614 4.39318 9.31606C4.44737 9.25598 4.51273 9.20747 4.58547 9.17334C4.65822 9.13922 4.7369 9.12016 4.81693 9.11729H13.8041C13.9649 9.12554 14.1161 9.19787 14.225 9.31868C14.334 9.43948 14.3919 9.59908 14.3864 9.76304C14.3906 9.84469 14.3788 9.92637 14.3517 10.0033C14.3246 10.0803 14.2827 10.151 14.2285 10.2112C14.1743 10.2715 14.1088 10.3202 14.036 10.3544C13.9631 10.3887 13.8843 10.4078 13.8041 10.4107H4.81693ZM18.4115 17.7573C18.4854 17.7539 18.559 17.7693 18.6257 17.8019C18.6924 17.8346 18.7501 17.8835 18.7937 17.9444C18.9957 18.2514 18.7202 18.5565 18.531 18.7699C17.9798 19.3744 16.7655 20.4694 16.4973 20.7895C16.4562 20.8428 16.4038 20.8859 16.3439 20.9156C16.2841 20.9452 16.2184 20.9606 16.1519 20.9606C16.0854 20.9606 16.0197 20.9452 15.9599 20.9156C15.9 20.8859 15.8476 20.8428 15.8065 20.7895C15.5291 20.4619 14.2395 19.2921 13.7251 18.7119C13.5414 18.5078 13.3246 18.2289 13.512 17.9444C13.5557 17.8837 13.6134 17.8348 13.68 17.8021C13.7467 17.7695 13.8202 17.7541 13.8941 17.7573H14.8622V15.9997C14.8622 15.8524 14.919 15.7109 15.0204 15.6059C15.1218 15.5009 15.2596 15.4406 15.4042 15.4382H16.9143C17.0605 15.4382 17.2007 15.4973 17.304 15.6026C17.4074 15.7079 17.4654 15.8508 17.4654 15.9997V17.7573H18.4115Z" fill="#193B68"/>
</svg>
