<svg width="15" height="21" viewBox="0 0 15 21" fill="none" xmlns="http://www.w3.org/2000/svg">
<path fill-rule="evenodd" clip-rule="evenodd" d="M15 6.36451C14.9999 6.27011 14.9677 6.17879 14.9092 6.10664L10.0658 0.164245C10.0304 0.113672 9.98416 0.0724558 9.93067 0.0439243C9.87719 0.0153928 9.818 0.000346241 9.75789 0L1.04645 0C0.909313 0.00011334 0.773549 0.0283914 0.646945 0.0832117C0.520342 0.138032 0.40539 0.218316 0.308684 0.319457C0.21098 0.420112 0.1334 0.539893 0.0804194 0.671892C0.0274393 0.803891 0.000107688 0.945495 0 1.08854V19.9115C0.000307597 20.054 0.0276245 20.1951 0.0803881 20.3266C0.133152 20.4582 0.210326 20.5776 0.307499 20.6781C0.502737 20.8823 0.767974 20.9975 1.04487 20.9984H13.9528C14.0898 20.9979 14.2253 20.9693 14.3517 20.9142C14.4781 20.8592 14.5928 20.7788 14.6893 20.6777C14.7866 20.5773 14.8639 20.4579 14.9168 20.3265C14.9697 20.195 14.9971 20.054 14.9976 19.9115L15 6.36451ZM8.72724 17.9372H3.48908C3.4024 17.944 3.3153 17.9321 3.23324 17.9023C3.15119 17.8724 3.07594 17.8252 3.01221 17.7638C2.94848 17.7023 2.89764 17.6277 2.86288 17.5449C2.82811 17.462 2.81017 17.3725 2.81017 17.2821C2.81017 17.1917 2.82811 17.1022 2.86288 17.0193C2.89764 16.9365 2.94848 16.8619 3.01221 16.8005C3.07594 16.739 3.15119 16.6918 3.23324 16.662C3.3153 16.6321 3.4024 16.6202 3.48908 16.627H8.72684C8.88571 16.6394 9.03419 16.7138 9.14253 16.8353C9.25088 16.9568 9.31109 17.1164 9.31109 17.2821C9.31109 17.4478 9.25088 17.6074 9.14253 17.7289C9.03419 17.8504 8.88571 17.9248 8.72684 17.9372H8.72724ZM9.66553 14.6774H3.48908C3.4024 14.6842 3.3153 14.6722 3.23324 14.6424C3.15119 14.6125 3.07594 14.5654 3.01221 14.5039C2.94848 14.4424 2.89764 14.3679 2.86288 14.285C2.82811 14.2021 2.81017 14.1127 2.81017 14.0222C2.81017 13.9318 2.82811 13.8424 2.86288 13.7595C2.89764 13.6766 2.94848 13.6021 3.01221 13.5406C3.07594 13.4791 3.15119 13.4319 3.23324 13.4021C3.3153 13.3722 3.4024 13.3603 3.48908 13.3671H9.66553C9.75221 13.3603 9.8393 13.3722 9.92136 13.4021C10.0034 13.4319 10.0787 13.4791 10.1424 13.5406C10.2061 13.6021 10.257 13.6766 10.2917 13.7595C10.3265 13.8424 10.3444 13.9318 10.3444 14.0222C10.3444 14.1127 10.3265 14.2021 10.2917 14.285C10.257 14.3679 10.2061 14.4424 10.1424 14.5039C10.0787 14.5654 10.0034 14.6125 9.92136 14.6424C9.8393 14.6722 9.75221 14.6842 9.66553 14.6774ZM10.0109 11.4179H3.48908C3.4024 11.4247 3.3153 11.4128 3.23324 11.3829C3.15119 11.3531 3.07594 11.3059 3.01221 11.2444C2.94848 11.1829 2.89764 11.1084 2.86288 11.0255C2.82811 10.9427 2.81017 10.8532 2.81017 10.7628C2.81017 10.6724 2.82811 10.5829 2.86288 10.5C2.89764 10.4172 2.94848 10.3426 3.01221 10.2811C3.07594 10.2196 3.15119 10.1725 3.23324 10.1426C3.3153 10.1128 3.4024 10.1009 3.48908 10.1077H10.0109C10.0976 10.1009 10.1847 10.1128 10.2668 10.1426C10.3488 10.1725 10.4241 10.2196 10.4878 10.2811C10.5515 10.3426 10.6024 10.4172 10.6371 10.5C10.6719 10.5829 10.6898 10.6724 10.6898 10.7628C10.6898 10.8532 10.6719 10.9427 10.6371 11.0255C10.6024 11.1084 10.5515 11.1829 10.4878 11.2444C10.4241 11.3059 10.3488 11.3531 10.2668 11.3829C10.1847 11.4128 10.0976 11.4247 10.0109 11.4179ZM14.3684 6.65194C8.50303 6.85314 8.88908 6.40146 9.28382 0.667247H9.67855L14.3684 6.46141V6.65194Z" fill="white"/>
</svg>
