<svg width="21" height="21" viewBox="0 0 21 21" fill="none" xmlns="http://www.w3.org/2000/svg">
<g clip-path="url(#clip0_44_569)">
<path d="M14.0273 21H1.96875C1.93908 20.9854 1.90815 20.9735 1.87633 20.9645C1.09047 20.8141 0.527187 20.3738 0.196328 19.6481C0.107187 19.4534 0.0639844 19.2374 0 19.0312V1.96875C0.0136719 1.92445 0.0311713 1.8807 0.0404682 1.83531C0.170624 1.20367 0.493282 0.691248 1.05 0.365858C1.33109 0.201795 1.66086 0.119219 1.96875 0H10.6641V4.59375C10.6641 5.10289 10.8937 5.33422 11.3991 5.33422H15.9961V7.4982C13.7681 7.05031 11.917 8.01937 10.9386 9.41226C9.79016 11.0474 9.61844 12.8182 10.564 14.5737C11.7184 16.7158 13.6084 17.4836 15.989 17.1347C15.989 17.7335 16.0196 18.3378 15.9824 18.9345C15.9228 19.8926 15.231 20.6845 14.2991 20.9256C14.2084 20.9513 14.1181 20.9748 14.0273 21ZM6.58437 6.5625C5.44414 6.5625 4.30336 6.55922 3.16312 6.56687C3.02123 6.56691 2.88125 6.59966 2.75406 6.66258C2.51726 6.78617 2.41227 7.08203 2.48391 7.3325C2.56539 7.61961 2.79234 7.79133 3.10898 7.79187C4.07859 7.79187 5.0482 7.79187 6.01781 7.79187C7.34271 7.79187 8.6676 7.79187 9.9925 7.79187C10.2714 7.79187 10.4847 7.6825 10.605 7.4293C10.8024 7.01039 10.4956 6.56305 10.0034 6.56195C8.86539 6.56086 7.72461 6.5625 6.58437 6.5625ZM5.76406 9.02344C4.88906 9.02344 4.01516 9.02344 3.14234 9.02344C2.74203 9.02344 2.46476 9.27281 2.46039 9.63047C2.45601 9.98812 2.73711 10.2528 3.14781 10.2528C4.87484 10.2528 6.60206 10.2528 8.32945 10.2528C8.74344 10.2528 9.02289 10.0007 9.02125 9.63484C9.01961 9.26898 8.74016 9.02289 8.32398 9.02289C7.47159 9.02253 6.61865 9.02271 5.76516 9.02344H5.76406ZM5.74164 12.7148C6.61664 12.7148 7.49055 12.7148 8.36336 12.7148C8.65922 12.7148 8.8807 12.5694 8.9775 12.3238C9.14156 11.9016 8.83641 11.486 8.35187 11.4855C6.61755 11.4855 4.88341 11.4855 3.14945 11.4855C2.7382 11.4855 2.45711 11.7409 2.46039 12.1056C2.46367 12.4704 2.74312 12.7148 3.16094 12.7154L5.74164 12.7148ZM5.76352 13.9453C4.88852 13.9453 4.01461 13.9453 3.1418 13.9453C2.74258 13.9453 2.46476 14.1958 2.46039 14.5523C2.45656 14.9182 2.73711 15.1747 3.14781 15.1747C4.87484 15.1747 6.60206 15.1747 8.32945 15.1747C8.74344 15.1747 9.02289 14.922 9.02125 14.5567C9.01961 14.1914 8.7407 13.9448 8.32398 13.9448C7.47122 13.9444 6.6181 13.9446 5.76461 13.9453H5.76352Z" fill="#193B68"/>
<path d="M20.9999 17.9239C20.9015 18.1322 20.7812 18.3204 20.5351 18.3729C20.289 18.4254 20.0833 18.3504 19.904 18.17C19.0126 17.2738 18.1193 16.3791 17.2243 15.4859C17.1731 15.4263 17.1262 15.3633 17.0837 15.2972C16.0332 15.9918 14.9383 16.1848 13.7708 15.8129C12.9396 15.5531 12.2317 14.9992 11.7796 14.2549C11.3175 13.518 11.1314 12.6412 11.2546 11.7801C11.3777 10.9191 11.8021 10.1296 12.4523 9.55177C13.0998 8.9724 13.9311 8.64032 14.7996 8.61411C15.668 8.58789 16.5179 8.86923 17.1991 9.40849C18.609 10.5181 19.1312 12.6613 17.9292 14.4441C17.9779 14.4955 18.0271 14.5502 18.0791 14.6022C18.9442 15.4679 19.8116 16.3303 20.6718 17.2004C20.7981 17.3283 20.8905 17.4891 20.9999 17.6346V17.9239Z" fill="#193B68"/>
<path d="M15.5635 4.09287H11.906V0.437012L15.5635 4.09287Z" fill="#193B68"/>
</g>
<defs>
<clipPath id="clip0_44_569">
<rect width="21" height="21" fill="white"/>
</clipPath>
</defs>
</svg>
