<svg width="24" height="22" viewBox="0 0 24 22" fill="none" xmlns="http://www.w3.org/2000/svg">
<path d="M21.1889 4.4898H20V0.897959C20 0.659806 19.9064 0.431406 19.7397 0.263006C19.573 0.0946063 19.3469 0 19.1111 0H4.88889C4.65314 0 4.42705 0.0946063 4.26035 0.263006C4.09365 0.431406 4 0.659806 4 0.897959V4.4898H2.81111C1.26667 4.4898 0 5.70204 0 7.18367V16.1633C0 16.4014 0.0936505 16.6298 0.260349 16.7982C0.427048 16.9666 0.653141 17.0612 0.888889 17.0612H4V21.102C4 21.3402 4.09365 21.5686 4.26035 21.737C4.42705 21.9054 4.65314 22 4.88889 22H19.1111C19.3469 22 19.573 21.9054 19.7397 21.737C19.9064 21.5686 20 21.3402 20 21.102V17.0612H23.1111C23.3469 17.0612 23.573 16.9666 23.7397 16.7982C23.9064 16.6298 24 16.4014 24 16.1633V7.18367C24 5.70204 22.7333 4.4898 21.1889 4.4898ZM5.77778 1.79592H18.2222V4.4898H5.77778V1.79592ZM18.2222 20.2041H5.77778V14.3673H18.2222V20.2041ZM18.6667 10.7755C18.403 10.7755 18.1452 10.6965 17.9259 10.5485C17.7066 10.4005 17.5357 10.1901 17.4348 9.94402C17.3339 9.6979 17.3075 9.42708 17.359 9.1658C17.4104 8.90452 17.5374 8.66451 17.7239 8.47614C17.9103 8.28777 18.1479 8.15949 18.4065 8.10751C18.6652 8.05554 18.9333 8.08222 19.1769 8.18416C19.4205 8.28611 19.6288 8.45875 19.7753 8.68025C19.9218 8.90176 20 9.16217 20 9.42857C20 9.7858 19.8595 10.1284 19.6095 10.381C19.3594 10.6336 19.0203 10.7755 18.6667 10.7755Z" fill="white"/>
</svg>
