<svg width="21" height="21" viewBox="0 0 21 21" fill="none" xmlns="http://www.w3.org/2000/svg">
<path d="M13.272 5.78455H19.0909V1.90909H13.272V5.78455ZM12.3175 0H20.0455C20.2986 0 20.5414 0.100568 20.7204 0.27958C20.8994 0.458592 21 0.701385 21 0.954546V6.73909C21 6.99225 20.8994 7.23505 20.7204 7.41406C20.5414 7.59307 20.2986 7.69364 20.0455 7.69364H12.3175C12.1921 7.69364 12.068 7.66895 11.9522 7.62098C11.8364 7.57301 11.7311 7.5027 11.6425 7.41406C11.5539 7.32542 11.4835 7.22019 11.4356 7.10438C11.3876 6.98857 11.3629 6.86444 11.3629 6.73909V0.954546C11.3629 0.829193 11.3876 0.705068 11.4356 0.589257C11.4835 0.473446 11.5539 0.368218 11.6425 0.27958C11.7311 0.190943 11.8364 0.120631 11.9522 0.0726605C12.068 0.0246901 12.1921 0 12.3175 0ZM19.0909 19.0909V11.3744H13.272V19.0909H19.0909ZM11.3629 20.0455V10.4198C11.3629 10.2945 11.3876 10.1703 11.4356 10.0545C11.4835 9.93872 11.5539 9.83349 11.6425 9.74485C11.7311 9.65622 11.8364 9.5859 11.9522 9.53793C12.068 9.48996 12.1921 9.46527 12.3175 9.46527H20.0455C20.2986 9.46527 20.5414 9.56584 20.7204 9.74485C20.8994 9.92387 21 10.1667 21 10.4198V20.0455C21 20.2986 20.8994 20.5414 20.7204 20.7204C20.5414 20.8994 20.2986 21 20.0455 21H12.3175C12.1921 21 12.068 20.9753 11.9522 20.9273C11.8364 20.8794 11.7311 20.8091 11.6425 20.7204C11.5539 20.6318 11.4835 20.5266 11.4356 20.4107C11.3876 20.2949 11.3629 20.1708 11.3629 20.0455ZM7.728 19.0909V15.2155H1.90909V19.0909H7.728ZM0 20.0455V14.2609C0 14.0077 0.100568 13.765 0.27958 13.5859C0.458592 13.4069 0.701385 13.3064 0.954546 13.3064H8.68255C8.8079 13.3064 8.93202 13.3311 9.04783 13.379C9.16365 13.427 9.26887 13.4973 9.35751 13.5859C9.44615 13.6746 9.51646 13.7798 9.56443 13.8956C9.6124 14.0114 9.63709 14.1356 9.63709 14.2609V20.0455C9.63709 20.1708 9.6124 20.2949 9.56443 20.4107C9.51646 20.5266 9.44615 20.6318 9.35751 20.7204C9.26887 20.8091 9.16365 20.8794 9.04783 20.9273C8.93202 20.9753 8.8079 21 8.68255 21H0.954546C0.701385 21 0.458592 20.8994 0.27958 20.7204C0.100568 20.5414 0 20.2986 0 20.0455ZM7.728 9.62564V1.90909H1.90909V9.62564H7.728ZM0 10.5802V0.954546C0 0.701385 0.100568 0.458592 0.27958 0.27958C0.458592 0.100568 0.701385 0 0.954546 0H8.68255C8.8079 0 8.93202 0.0246901 9.04783 0.0726605C9.16365 0.120631 9.26887 0.190943 9.35751 0.27958C9.44615 0.368218 9.51646 0.473446 9.56443 0.589257C9.6124 0.705068 9.63709 0.829193 9.63709 0.954546V10.5802C9.63709 10.7055 9.6124 10.8297 9.56443 10.9455C9.51646 11.0613 9.44615 11.1665 9.35751 11.2551C9.26887 11.3438 9.16365 11.4141 9.04783 11.4621C8.93202 11.51 8.8079 11.5347 8.68255 11.5347H0.954546C0.701385 11.5347 0.458592 11.4342 0.27958 11.2551C0.100568 11.0761 0 10.8333 0 10.5802Z" fill="#193B68"/>
</svg>
